<?xml version="1.0" encoding="UTF-8" standalone="no"?>
<svg
   height="2cm"
   preserveAspectRatio="xMidYMid"
   viewBox="0 0 56.692912 75.590548"
   width="1.5cm"
   version="1.1"
   id="svg22"
   sodipodi:docname="ansible.svg"
   inkscape:version="1.1.2 (0a00cf5339, 2022-02-04)"
   xmlns:inkscape="http://www.inkscape.org/namespaces/inkscape"
   xmlns:sodipodi="http://sodipodi.sourceforge.net/DTD/sodipodi-0.dtd"
   xmlns="http://www.w3.org/2000/svg"
   xmlns:svg="http://www.w3.org/2000/svg">
  <defs
     id="defs26" />
  <sodipodi:namedview
     id="namedview24"
     pagecolor="#505050"
     bordercolor="#ffffff"
     borderopacity="1"
     inkscape:pageshadow="0"
     inkscape:pageopacity="0"
     inkscape:pagecheckerboard="1"
     showgrid="false"
     units="cm"
     width="1.5cm"
     inkscape:zoom="7.8387837"
     inkscape:cx="70.036375"
     inkscape:cy="58.873929"
     inkscape:window-width="3766"
     inkscape:window-height="1536"
     inkscape:window-x="74"
     inkscape:window-y="27"
     inkscape:window-maximized="1"
     inkscape:current-layer="svg22"
     inkscape:document-units="cm" />
  <g
     id="g853"
     transform="matrix(0.19508426,0,0,0.19508426,3.8053701,2.8813941)">
    <g
       fill="#1a1918"
       transform="translate(0,281.86)"
       id="g16">
      <path
         d="m 67.5168,32.0035 c -0.54152,0 -1.12617,-0.13685 -1.53212,-0.68583 L 48.60118,8.45647 v 23.3187 H 44.63687 V 3.06097 c 0,-1.14253 0.94592,-2.0571 2.0278,-2.0571 0.62971,0 1.17084,0.1826 1.57485,0.73158 l 17.3396,22.8159 V 1.32375 h 3.96392 v 28.6681 c 0,1.18907 -0.94592,2.01175 -2.02625,2.01175"
         id="path2" />
      <path
         d="m 100.306,32.278 c -3.96276,0 -8.10693,-0.82347 -11.9803,-2.28584 l 0.94631,-3.2927 c 3.55797,1.14332 7.43099,1.96639 11.034,1.96639 4.99958,0 7.61163,-1.7834 7.61163,-4.29759 0,-2.28663 -2.02741,-3.42956 -9.00817,-6.72187 -6.98076,-3.29192 -9.72722,-5.39477 -9.72722,-9.51055 0,-5.16563 3.96276,-7.27006 11.4384,-7.27006 3.10813,0 7.88162,0.64087 10.63,1.46395 l -0.63087,3.38302 c -3.01839,-0.73119 -6.80051,-1.23402 -9.90864,-1.23402 -5.26839,0 -7.4306,1.00528 -7.4306,3.52066 0,2.46844 1.57562,3.52026 8.96194,6.94982 7.79188,3.61216 9.77345,5.4413 9.77345,9.18992 0,5.4417 -5.13515,8.13888 -11.71,8.13888"
         id="path4" />
      <path
         d="m 130.798,1.32367 h 4.09833 v 30.4511 H 130.798 Z"
         id="path6" />
      <path
         d="m 169.758,17.9669 h -10.1798 v 10.334 h 10.1798 c 3.46746,0 5.58422,-2.19514 5.58422,-5.2591 0,-2.88057 -2.2065,-5.07492 -5.58422,-5.07492 m -1.98274,-13.1685 h -8.19705 v 9.73929 h 8.19705 c 3.28838,0 5.67512,-2.10364 5.67512,-5.02957 0,-2.88057 -2.07208,-4.70972 -5.67512,-4.70972 m 2.02741,26.9766 h -12.2499 c -1.17162,0 -2.07247,-0.91497 -2.07247,-2.0575 V 3.38138 c 0,-1.09796 0.90086,-2.0575 2.07247,-2.0575 h 10.1332 c 6.21509,0 9.90786,3.06317 9.90786,7.86439 0,2.60569 -1.53134,5.02917 -3.8738,6.44659 3.4694,1.05182 5.80992,3.932 5.80992,7.40691 0,4.84657 -4.00743,8.73322 -9.72722,8.73322"
         id="path8" />
      <path
         d="m 199.212,31.7751 c -1.12422,0 -2.02547,-0.96032 -2.02547,-2.0575 V 1.324 h 4.09755 v 26.7479 h 16.304 v 3.70326 h -18.3761 z"
         id="path10" />
      <path
         d="m 245.526,32.278 c -8.3773,0 -13.4215,-3.10892 -13.4215,-9.37291 0,-2.97207 1.66691,-5.8069 4.90984,-7.13281 -2.61244,-1.64616 -3.96314,-3.97814 -3.96314,-6.53848 0,-5.66926 4.36987,-8.36802 12.5658,-8.36802 2.74763,0 6.62026,0.32063 9.86358,1.05261 l -0.45101,3.38302 c -3.42201,-0.54898 -6.62104,-0.86804 -9.72839,-0.86804 -5.31462,0 -8.15238,1.46237 -8.15238,4.98343 0,2.78947 2.61283,4.98382 6.08146,4.98382 h 7.02504 c 0.99098,0 1.75626,0.77733 1.75626,1.73726 0,1.00568 -0.76528,1.78301 -1.75626,1.78301 h -7.56501 c -3.9647,0 -6.48546,1.96561 -6.48546,4.98421 0,4.43484 4.09833,5.76075 9.23232,5.76075 2.79269,0 6.57442,-0.3648 9.63671,-1.09678 l 0.58697,3.33727 c -2.92827,0.82347 -6.757,1.37166 -10.1347,1.37166"
         id="path12" />
      <path
         d="M 14.138,7.0347 21.31571,25.019 10.47511,16.34967 14.13797,7.03474 Z M 26.8894,29.1624 15.8495,2.1878 C 15.53445,1.41047 14.90358,0.99873 14.13791,0.99873 c -0.76567,0 -1.44121,0.41174 -1.75626,1.18907 L 0.26375,31.7752 h 4.14456 l 4.79757,-12.1983 14.3142,11.7408 c 0.57571,0.47208 0.99098,0.68583 1.53212,0.68583 1.08033,0 2.02625,-0.82268 2.02625,-2.01135 0,-0.19285 -0.06798,-0.49968 -0.18918,-0.82978 z"
         id="path14" />
    </g>
    <path
       d="m 255.879,127.868 c 0,70.4551 -57.1101,127.565 -127.566,127.565 C 57.8629,255.433 0.747,198.3234 0.747,127.868 0.747,57.4179 57.8631,0.302 128.313,0.302 c 70.4561,0 127.566,57.1161 127.566,127.566"
       fill="#1a1918"
       id="path18" />
    <path
       d="M 130.46,78.2289 163.4716,159.7052 113.6081,120.4274 130.46,78.229 Z m 58.6445,100.245 -50.7786,-122.202 c -1.44952,-3.52436 -4.34807,-5.38926 -7.86591,-5.38926 -3.52436,0 -6.63386,1.86489 -8.08339,5.38926 l -55.7329,134.04 H 85.709 l 22.0623,-55.2653 65.8389,53.1899 c 2.64792,2.14114 4.55852,3.1095 7.0422,3.1095 4.97389,0 9.32146,-3.72878 9.32146,-9.11101 0,-0.87594 -0.30939,-2.2662 -0.86941,-3.76143 z"
       fill="#ffffff"
       id="path20" />
  </g>
</svg>
