<?xml version="1.0" encoding="UTF-8" standalone="no"?>
<!-- Created with Inkscape (http://www.inkscape.org/) -->

<svg
   width="1.5cm"
   height="2cm"
   viewBox="0 0 15 19.999999"
   version="1.1"
   id="svg2293"
   inkscape:version="1.1.2 (0a00cf5339, 2022-02-04)"
   sodipodi:docname="capella2.svg"
   xmlns:inkscape="http://www.inkscape.org/namespaces/inkscape"
   xmlns:sodipodi="http://sodipodi.sourceforge.net/DTD/sodipodi-0.dtd"
   xmlns="http://www.w3.org/2000/svg"
   xmlns:svg="http://www.w3.org/2000/svg">
  <sodipodi:namedview
     id="namedview2295"
     pagecolor="#505050"
     bordercolor="#ffffff"
     borderopacity="1"
     inkscape:pageshadow="0"
     inkscape:pageopacity="0"
     inkscape:pagecheckerboard="1"
     inkscape:document-units="cm"
     showgrid="false"
     units="cm"
     inkscape:zoom="12.443434"
     inkscape:cx="7.2327299"
     inkscape:cy="33.471467"
     inkscape:window-width="3766"
     inkscape:window-height="1536"
     inkscape:window-x="74"
     inkscape:window-y="27"
     inkscape:window-maximized="1"
     inkscape:current-layer="layer1" />
  <defs
     id="defs2290">
    <filter
       inkscape:collect="always"
       style="color-interpolation-filters:sRGB"
       id="filter893-6-3-2"
       x="-5.5370744e-05"
       width="1.0001107"
       y="-0.00025049426"
       height="1.000501">
      <feGaussianBlur
         inkscape:collect="always"
         stdDeviation="0.001905"
         id="feGaussianBlur895-7-5-9" />
    </filter>
    <filter
       inkscape:collect="always"
       style="color-interpolation-filters:sRGB"
       id="filter893-6-3"
       x="-5.5370744e-05"
       width="1.0001107"
       y="-0.00025049426"
       height="1.000501">
      <feGaussianBlur
         inkscape:collect="always"
         stdDeviation="0.001905"
         id="feGaussianBlur895-7-5" />
    </filter>
    <filter
       inkscape:collect="always"
       style="color-interpolation-filters:sRGB"
       id="filter893-6"
       x="-5.5370744e-05"
       width="1.0001107"
       y="-0.00025049426"
       height="1.000501">
      <feGaussianBlur
         inkscape:collect="always"
         stdDeviation="0.001905"
         id="feGaussianBlur895-7" />
    </filter>
  </defs>
  <g
     inkscape:label="Layer 1"
     inkscape:groupmode="layer"
     id="layer1">
    <path
       id="rect847-3-5"
       style="display:inline;fill:#736ba6;stroke-width:0.999999;filter:url(#filter893-6)"
       transform="matrix(0.16433514,0,0,0.15296099,0.71302291,9.0461231)"
       d="M 5.1983159,0.00315393 H 77.400899 c 2.871963,0 5.184048,2.31208527 5.184048,5.18404767 v 7.8838194 c 0,2.871963 -2.312085,5.184048 -5.184048,5.184048 H 5.1983159 c -2.8719624,0 -5.18404769,-2.312085 -5.18404769,-5.184048 V 5.1872016 c 0,-2.8719624 2.31208529,-5.18404767 5.18404769,-5.18404767 z" />
    <path
       id="rect847-3-5-6"
       style="display:inline;fill:#736ba6;stroke-width:0.999999;filter:url(#filter893-6-3)"
       transform="matrix(0.16433514,0,0,0.15296099,0.71302291,5.3881926)"
       d="M 5.1983159,0.00315393 H 77.400899 c 2.871963,0 5.184048,2.31208527 5.184048,5.18404767 v 7.8838194 c 0,2.871963 -2.312085,5.184048 -5.184048,5.184048 H 5.1983159 c -2.8719624,0 -5.18404769,-2.312085 -5.18404769,-5.184048 V 5.1872016 c 0,-2.8719624 2.31208529,-5.18404767 5.18404769,-5.18404767 z" />
    <path
       id="rect847-3-5-6-1"
       style="display:inline;fill:#736ba6;stroke-width:0.999999;filter:url(#filter893-6-3-2)"
       transform="matrix(0.16433514,0,0,0.15296099,0.71302291,1.7314126)"
       d="M 5.1983159,0.00315393 H 77.400899 c 2.871963,0 5.184048,2.31208527 5.184048,5.18404767 v 7.8838194 c 0,2.871963 -2.312085,5.184048 -5.184048,5.184048 H 5.1983159 c -2.8719624,0 -5.18404769,-2.312085 -5.18404769,-5.184048 V 5.1872016 c 0,-2.8719624 2.31208529,-5.18404767 5.18404769,-5.18404767 z" />
    <text
       xml:space="preserve"
       style="font-size:3.52778px;line-height:1.25;font-family:sans-serif;text-align:center;text-anchor:middle;stroke:none;stroke-width:0.264583"
       x="7.5611501"
       y="17.815838"
       id="text5374"><tspan
         sodipodi:role="line"
         id="tspan5372"
         style="font-size:3.52778px;stroke:none;stroke-width:0.264583"
         x="7.5611501"
         y="17.815838">Capella</tspan></text>
  </g>
</svg>
