<?xml version="1.0" encoding="UTF-8" standalone="no"?>
<!-- Created with Inkscape (http://www.inkscape.org/) -->

<svg
   xmlns:dc="http://purl.org/dc/elements/1.1/"
   xmlns:cc="http://creativecommons.org/ns#"
   xmlns:rdf="http://www.w3.org/1999/02/22-rdf-syntax-ns#"
   xmlns:svg="http://www.w3.org/2000/svg"
   xmlns="http://www.w3.org/2000/svg"
   xmlns:sodipodi="http://sodipodi.sourceforge.net/DTD/sodipodi-0.dtd"
   xmlns:inkscape="http://www.inkscape.org/namespaces/inkscape"
   width="1.5cm"
   height="2cm"
   viewBox="0 0 14.999999 20"
   version="1.1"
   id="svg8"
   inkscape:version="0.92.4 (5da689c313, 2019-01-14)"
   sodipodi:docname="docker.svg">
  <defs
     id="defs2" />
  <sodipodi:namedview
     id="base"
     pagecolor="#ffffff"
     bordercolor="#666666"
     borderopacity="1.0"
     inkscape:pageopacity="0.0"
     inkscape:pageshadow="2"
     inkscape:zoom="5.6568543"
     inkscape:cx="39.13863"
     inkscape:cy="43.874025"
     inkscape:document-units="mm"
     inkscape:current-layer="layer1"
     showgrid="false"
     units="cm"
     inkscape:window-width="1920"
     inkscape:window-height="1001"
     inkscape:window-x="-9"
     inkscape:window-y="-9"
     inkscape:window-maximized="1" />
  <metadata
     id="metadata5">
    <rdf:RDF>
      <cc:Work
         rdf:about="">
        <dc:format>image/svg+xml</dc:format>
        <dc:type
           rdf:resource="http://purl.org/dc/dcmitype/StillImage" />
        <dc:title></dc:title>
      </cc:Work>
    </rdf:RDF>
  </metadata>
  <g
     inkscape:label="Ebene 1"
     inkscape:groupmode="layer"
     id="layer1"
     transform="translate(0,-277)">
    <text
       xml:space="preserve"
       style="font-style:normal;font-weight:normal;font-size:10.58333302px;line-height:1.25;font-family:sans-serif;text-align:center;letter-spacing:0px;word-spacing:0px;text-anchor:middle;fill:#000000;fill-opacity:1;stroke:none;stroke-width:0.26458332"
       x="7.7775884"
       y="295.61148"
       id="text3728"><tspan
         sodipodi:role="line"
         id="tspan3726"
         x="7.7775884"
         y="295.61148"
         style="font-size:3.88055563px;text-align:center;text-anchor:middle;stroke-width:0.26458332">Docker</tspan></text>
    <g
       id="g46"
       style="fill:#0091e2;fill-opacity:1"
       transform="matrix(0.2499846,0,0,0.2499846,9.7146762,213.94936)">
      <path
         style="fill:#0091e2;fill-opacity:1;stroke-width:0.26458332"
         id="path20"
         d="m 20.47733,277.79826 c -0.15875,-0.1323 -1.5875,-1.21709 -4.656666,-1.21709 -0.79375,0 -1.613959,0.0794 -2.407709,0.21167 -0.582083,-4.04813 -3.9422915,-6.00604 -4.0745835,-6.11188 l -0.820208,-0.47625 -0.529167,0.7673 c -0.661458,1.03187 -1.164167,2.19604 -1.455208,3.38666 -0.555625,2.30188 -0.211667,4.47146 0.9525,6.32354 -1.402292,0.79375 -3.677709,0.97896 -4.153959,1.00542 H -34.238503 c -0.978958,0 -1.772708,0.79375 -1.772708,1.77271 -0.05292,3.28083 0.502708,6.56167 1.640416,9.65729 1.296459,3.38667 3.227917,5.90021 5.715001,7.43479 2.804583,1.71979 7.381875,2.69875 12.54125,2.69875 2.328333,0 4.656667,-0.21166 6.9585405,-0.635 3.201458,-0.58208 6.270625,-1.69333 9.10166704,-3.30729 2.32833296,-1.34937 4.41854096,-3.06917 6.19124996,-5.08 2.989791,-3.36021 4.7625005,-7.11729 6.0589585,-10.45104 0.185208,0 0.343958,0 0.529167,0 3.254375,0 5.265208,-1.29646 6.376458,-2.40771 0.740833,-0.68792 1.296458,-1.53458 1.693333,-2.48708 l 0.238125,-0.68792 z"
         class="st0"
         inkscape:connector-curvature="0" />
      <path
         style="fill:#0091e2;fill-opacity:1;stroke-width:0.26458332"
         id="path22"
         d="m -30.746003,280.60284 h 5.027084 c 0.238125,0 0.449792,-0.18521 0.449792,-0.44979 v 0 -4.49792 c 0,-0.23812 -0.185209,-0.44979 -0.449792,-0.44979 0,0 0,0 0,0 h -5.027084 c -0.238125,0 -0.449791,0.18521 -0.449791,0.44979 0,0 0,0 0,0 v 4.49792 c 0.02646,0.26458 0.211666,0.44979 0.449791,0.44979 v 0"
         class="st0"
         inkscape:connector-curvature="0" />
      <path
         style="fill:#0091e2;fill-opacity:1;stroke-width:0.26458332"
         id="path24"
         d="m -23.813919,280.60284 h 5.027083 c 0.238125,0 0.449792,-0.18521 0.449792,-0.44979 v 0 -4.49792 c 0,-0.23812 -0.185208,-0.44979 -0.449792,-0.44979 0,0 0,0 0,0 h -5.027083 c -0.238125,0 -0.449792,0.18521 -0.449792,0.44979 v 4.49792 c 0.02646,0.26458 0.211667,0.44979 0.449792,0.44979"
         class="st0"
         inkscape:connector-curvature="0" />
      <path
         style="fill:#0091e2;fill-opacity:1;stroke-width:0.26458332"
         id="path26"
         d="m -16.749544,280.60284 h 5.027083 c 0.238125,0 0.449792,-0.18521 0.449792,-0.44979 v 0 -4.49792 c 0,-0.23812 -0.185208,-0.44979 -0.449792,-0.44979 0,0 0,0 0,0 h -5.027083 c -0.238125,0 -0.449792,0.18521 -0.449792,0.44979 0,0 0,0 0,0 v 4.49792 c 0,0.26458 0.185209,0.44979 0.449792,0.44979 v 0"
         class="st0"
         inkscape:connector-curvature="0" />
      <path
         style="fill:#0091e2;fill-opacity:1;stroke-width:0.26458332"
         id="path28"
         d="m -9.7910025,280.60284 h 5.027082 c 0.238125,0 0.449792,-0.18521 0.449792,-0.44979 v -4.49792 c 0,-0.23812 -0.185208,-0.44979 -0.449792,-0.44979 v 0 h -5.027082 c -0.2381245,0 -0.4497915,0.18521 -0.4497915,0.44979 0,0 0,0 0,0 v 4.49792 c 0,0.26458 0.211667,0.44979 0.4497915,0.44979 v 0"
         class="st0"
         inkscape:connector-curvature="0" />
      <path
         style="fill:#0091e2;fill-opacity:1;stroke-width:0.26458332"
         id="path30"
         d="m -23.813919,274.17346 h 5.027083 c 0.238125,0 0.449792,-0.21166 0.449792,-0.44979 v -4.49791 c 0,-0.23813 -0.185208,-0.4498 -0.449792,-0.4498 v 0 h -5.027083 c -0.238125,0 -0.449792,0.18521 -0.449792,0.4498 v 4.49791 c 0.02646,0.23813 0.211667,0.44979 0.449792,0.44979"
         class="st0"
         inkscape:connector-curvature="0" />
      <path
         style="fill:#0091e2;fill-opacity:1;stroke-width:0.26458332"
         id="path32"
         d="m -16.749544,274.17346 h 5.027083 c 0.238125,0 0.449792,-0.21166 0.449792,-0.44979 v -4.49791 c 0,-0.23813 -0.185208,-0.4498 -0.449792,-0.4498 v 0 h -5.027083 c -0.238125,0 -0.449792,0.18521 -0.449792,0.4498 v 0 4.49791 c 0,0.23813 0.185209,0.44979 0.449792,0.44979"
         class="st0"
         inkscape:connector-curvature="0" />
      <path
         style="fill:#0091e2;fill-opacity:1;stroke-width:0.26458332"
         id="path34"
         d="m -9.7910025,274.17346 h 5.027082 c 0.238125,0 0.449792,-0.21166 0.449792,-0.44979 v -4.49791 c 0,-0.23813 -0.211667,-0.4498 -0.449792,-0.4498 h -5.027082 c -0.2381245,0 -0.4497915,0.18521 -0.4497915,0.4498 v 0 4.49791 c 0,0.23813 0.211667,0.44979 0.4497915,0.44979"
         class="st0"
         inkscape:connector-curvature="0" />
      <path
         style="fill:#0091e2;fill-opacity:1;stroke-width:0.26458332"
         id="path36"
         d="m -9.7910025,267.71763 h 5.027082 c 0.238125,0 0.449792,-0.18521 0.449792,-0.44979 v -4.49792 c 0,-0.23812 -0.211667,-0.44979 -0.449792,-0.44979 h -5.027082 c -0.2381245,0 -0.4497915,0.18521 -0.4497915,0.44979 v 0 4.49792 c 0,0.23812 0.211667,0.44979 0.4497915,0.44979"
         class="st0"
         inkscape:connector-curvature="0" />
      <path
         style="fill:#0091e2;fill-opacity:1;stroke-width:0.26458332"
         id="path38"
         d="m -2.7795455,280.60284 h 5.027084 c 0.238125,0 0.449791,-0.18521 0.449791,-0.44979 v -4.49792 c 0,-0.23812 -0.185208,-0.44979 -0.449791,-0.44979 v 0 h -5.027084 c -0.238125,0 -0.449791,0.18521 -0.449791,0.44979 0,0 0,0 0,0 v 4.49792 c 0.02646,0.26458 0.211666,0.44979 0.449791,0.44979"
         class="st0"
         inkscape:connector-curvature="0" />
    </g>
  </g>
</svg>
