<?xml version="1.0" encoding="UTF-8" standalone="no"?>
<!-- Created with Inkscape (http://www.inkscape.org/) -->

<svg
   width="1.5cm"
   height="2cm"
   viewBox="0 0 14.999999 20"
   version="1.1"
   id="svg8"
   inkscape:version="1.1.2 (0a00cf5339, 2022-02-04)"
   sodipodi:docname="docker.svg"
   xmlns:inkscape="http://www.inkscape.org/namespaces/inkscape"
   xmlns:sodipodi="http://sodipodi.sourceforge.net/DTD/sodipodi-0.dtd"
   xmlns="http://www.w3.org/2000/svg"
   xmlns:svg="http://www.w3.org/2000/svg"
   xmlns:rdf="http://www.w3.org/1999/02/22-rdf-syntax-ns#"
   xmlns:cc="http://creativecommons.org/ns#"
   xmlns:dc="http://purl.org/dc/elements/1.1/">
  <defs
     id="defs2">
    <clipPath
       clipPathUnits="userSpaceOnUse"
       id="clipPath2617">
      <path
         style="color:#000000;fill:#892ca0;stroke-width:1;stroke-linecap:round;stroke-linejoin:round;-inkscape-stroke:none"
         d="m 41.552366,7.5579094 -21.390625,0.064453 c -0.160799,9.525e-4 -0.312436,0.074988 -0.412109,0.2011717 L 6.4625219,24.602831 c -0.1000562,0.125912 -0.1374275,0.29049 -0.1015622,0.447266 l 4.8203123,20.86328 c 0.03645,0.156562 0.14209,0.288071 0.28711,0.357423 l 19.298829,9.232421 c 0.145034,0.0698 0.31395,0.0698 0.458984,0 l 19.244143,-9.349608 c 0.14473,-0.07023 0.249661,-0.202472 0.28515,-0.359375 l 4.699219,-20.890625 c 0.0347,-0.156454 -0.0034,-0.320204 -0.10351,-0.445313 L 41.966429,7.7571282 C 41.86594,7.6311415 41.713519,7.5578078 41.552366,7.5579094 Z"
         id="path2619"
         sodipodi:nodetypes="ccccccccccccccc" />
    </clipPath>
    <clipPath
       id="clipPath81511"
       clipPathUnits="userSpaceOnUse">
      <rect
         y="-1.4835175"
         x="934.65692"
         height="12.832292"
         width="26.19375"
         id="rect81513"
         style="opacity:1;fill:#e7e8e9;fill-opacity:1;stroke:#a7a9ac;stroke-width:0.529167;stroke-linecap:square;stroke-linejoin:miter;stroke-miterlimit:4;stroke-dasharray:none;stroke-dashoffset:6;stroke-opacity:1" />
    </clipPath>
  </defs>
  <sodipodi:namedview
     id="base"
     pagecolor="#ffffff"
     bordercolor="#666666"
     borderopacity="1.0"
     inkscape:pageopacity="0.0"
     inkscape:pageshadow="2"
     inkscape:zoom="8.0000001"
     inkscape:cx="-7.2499999"
     inkscape:cy="38.4375"
     inkscape:document-units="mm"
     inkscape:current-layer="layer1"
     showgrid="false"
     units="cm"
     inkscape:window-width="3766"
     inkscape:window-height="1536"
     inkscape:window-x="74"
     inkscape:window-y="27"
     inkscape:window-maximized="1"
     inkscape:pagecheckerboard="1" />
  <metadata
     id="metadata5">
    <rdf:RDF>
      <cc:Work
         rdf:about="">
        <dc:format>image/svg+xml</dc:format>
        <dc:type
           rdf:resource="http://purl.org/dc/dcmitype/StillImage" />
      </cc:Work>
    </rdf:RDF>
  </metadata>
  <g
     inkscape:label="Ebene 1"
     inkscape:groupmode="layer"
     id="layer1"
     transform="translate(0,-277)">
    <text
       xml:space="preserve"
       style="font-style:normal;font-weight:normal;font-size:3.52778px;line-height:1;font-family:sans-serif;text-align:center;letter-spacing:0px;word-spacing:0px;text-anchor:middle;fill:#000000;fill-opacity:1;stroke:none;stroke-width:0.264583"
       x="7.6434636"
       y="293.10007"
       id="text3728"><tspan
         sodipodi:role="line"
         x="7.6434636"
         y="293.10007"
         style="font-size:3.52778px;text-align:center;text-anchor:middle;stroke-width:0.264583"
         id="tspan1973">Docker</tspan><tspan
         sodipodi:role="line"
         x="7.6434636"
         y="296.62784"
         style="font-size:3.52778px;text-align:center;text-anchor:middle;stroke-width:0.264583"
         id="tspan1977">Podman</tspan></text>
    <g
       id="g46"
       style="fill:#0091e2;fill-opacity:1"
       transform="matrix(0.17709823,0,0,0.17709823,10.783817,231.14093)">
      <path
         style="fill:#0091e2;fill-opacity:1;stroke-width:0.264583"
         id="path20"
         d="m 20.47733,277.79826 c -0.15875,-0.1323 -1.5875,-1.21709 -4.656666,-1.21709 -0.79375,0 -1.613959,0.0794 -2.407709,0.21167 -0.582083,-4.04813 -3.9422915,-6.00604 -4.0745835,-6.11188 l -0.820208,-0.47625 -0.529167,0.7673 c -0.661458,1.03187 -1.164167,2.19604 -1.455208,3.38666 -0.555625,2.30188 -0.211667,4.47146 0.9525,6.32354 -1.402292,0.79375 -3.677709,0.97896 -4.153959,1.00542 H -34.238503 c -0.978958,0 -1.772708,0.79375 -1.772708,1.77271 -0.05292,3.28083 0.502708,6.56167 1.640416,9.65729 1.296459,3.38667 3.227917,5.90021 5.715001,7.43479 2.804583,1.71979 7.381875,2.69875 12.54125,2.69875 2.328333,0 4.656667,-0.21166 6.9585405,-0.635 3.201458,-0.58208 6.270625,-1.69333 9.10166704,-3.30729 2.32833296,-1.34937 4.41854096,-3.06917 6.19124996,-5.08 2.989791,-3.36021 4.7625005,-7.11729 6.0589585,-10.45104 0.185208,0 0.343958,0 0.529167,0 3.254375,0 5.265208,-1.29646 6.376458,-2.40771 0.740833,-0.68792 1.296458,-1.53458 1.693333,-2.48708 l 0.238125,-0.68792 z"
         class="st0"
         inkscape:connector-curvature="0" />
      <path
         style="fill:#0091e2;fill-opacity:1;stroke-width:0.264583"
         id="path22"
         d="m -30.746003,280.60284 h 5.027084 c 0.238125,0 0.449792,-0.18521 0.449792,-0.44979 v 0 -4.49792 c 0,-0.23812 -0.185209,-0.44979 -0.449792,-0.44979 0,0 0,0 0,0 h -5.027084 c -0.238125,0 -0.449791,0.18521 -0.449791,0.44979 0,0 0,0 0,0 v 4.49792 c 0.02646,0.26458 0.211666,0.44979 0.449791,0.44979 v 0"
         class="st0"
         inkscape:connector-curvature="0" />
      <path
         style="fill:#0091e2;fill-opacity:1;stroke-width:0.264583"
         id="path24"
         d="m -23.813919,280.60284 h 5.027083 c 0.238125,0 0.449792,-0.18521 0.449792,-0.44979 v 0 -4.49792 c 0,-0.23812 -0.185208,-0.44979 -0.449792,-0.44979 0,0 0,0 0,0 h -5.027083 c -0.238125,0 -0.449792,0.18521 -0.449792,0.44979 v 4.49792 c 0.02646,0.26458 0.211667,0.44979 0.449792,0.44979"
         class="st0"
         inkscape:connector-curvature="0" />
      <path
         style="fill:#0091e2;fill-opacity:1;stroke-width:0.264583"
         id="path26"
         d="m -16.749544,280.60284 h 5.027083 c 0.238125,0 0.449792,-0.18521 0.449792,-0.44979 v 0 -4.49792 c 0,-0.23812 -0.185208,-0.44979 -0.449792,-0.44979 0,0 0,0 0,0 h -5.027083 c -0.238125,0 -0.449792,0.18521 -0.449792,0.44979 0,0 0,0 0,0 v 4.49792 c 0,0.26458 0.185209,0.44979 0.449792,0.44979 v 0"
         class="st0"
         inkscape:connector-curvature="0" />
      <path
         style="fill:#0091e2;fill-opacity:1;stroke-width:0.264583"
         id="path28"
         d="m -9.7910025,280.60284 h 5.027082 c 0.238125,0 0.449792,-0.18521 0.449792,-0.44979 v -4.49792 c 0,-0.23812 -0.185208,-0.44979 -0.449792,-0.44979 v 0 h -5.027082 c -0.2381245,0 -0.4497915,0.18521 -0.4497915,0.44979 0,0 0,0 0,0 v 4.49792 c 0,0.26458 0.211667,0.44979 0.4497915,0.44979 v 0"
         class="st0"
         inkscape:connector-curvature="0" />
      <path
         style="fill:#0091e2;fill-opacity:1;stroke-width:0.264583"
         id="path30"
         d="m -23.813919,274.17346 h 5.027083 c 0.238125,0 0.449792,-0.21166 0.449792,-0.44979 v -4.49791 c 0,-0.23813 -0.185208,-0.4498 -0.449792,-0.4498 v 0 h -5.027083 c -0.238125,0 -0.449792,0.18521 -0.449792,0.4498 v 4.49791 c 0.02646,0.23813 0.211667,0.44979 0.449792,0.44979"
         class="st0"
         inkscape:connector-curvature="0" />
      <path
         style="fill:#0091e2;fill-opacity:1;stroke-width:0.264583"
         id="path32"
         d="m -16.749544,274.17346 h 5.027083 c 0.238125,0 0.449792,-0.21166 0.449792,-0.44979 v -4.49791 c 0,-0.23813 -0.185208,-0.4498 -0.449792,-0.4498 v 0 h -5.027083 c -0.238125,0 -0.449792,0.18521 -0.449792,0.4498 v 0 4.49791 c 0,0.23813 0.185209,0.44979 0.449792,0.44979"
         class="st0"
         inkscape:connector-curvature="0" />
      <path
         style="fill:#0091e2;fill-opacity:1;stroke-width:0.264583"
         id="path34"
         d="m -9.7910025,274.17346 h 5.027082 c 0.238125,0 0.449792,-0.21166 0.449792,-0.44979 v -4.49791 c 0,-0.23813 -0.211667,-0.4498 -0.449792,-0.4498 h -5.027082 c -0.2381245,0 -0.4497915,0.18521 -0.4497915,0.4498 v 0 4.49791 c 0,0.23813 0.211667,0.44979 0.4497915,0.44979"
         class="st0"
         inkscape:connector-curvature="0" />
      <path
         style="fill:#0091e2;fill-opacity:1;stroke-width:0.264583"
         id="path36"
         d="m -9.7910025,267.71763 h 5.027082 c 0.238125,0 0.449792,-0.18521 0.449792,-0.44979 v -4.49792 c 0,-0.23812 -0.211667,-0.44979 -0.449792,-0.44979 h -5.027082 c -0.2381245,0 -0.4497915,0.18521 -0.4497915,0.44979 v 0 4.49792 c 0,0.23812 0.211667,0.44979 0.4497915,0.44979"
         class="st0"
         inkscape:connector-curvature="0" />
      <path
         style="fill:#0091e2;fill-opacity:1;stroke-width:0.264583"
         id="path38"
         d="m -2.7795455,280.60284 h 5.027084 c 0.238125,0 0.449791,-0.18521 0.449791,-0.44979 v -4.49792 c 0,-0.23812 -0.185208,-0.44979 -0.449791,-0.44979 v 0 h -5.027084 c -0.238125,0 -0.449791,0.18521 -0.449791,0.44979 0,0 0,0 0,0 v 4.49792 c 0.02646,0.26458 0.211666,0.44979 0.449791,0.44979"
         class="st0"
         inkscape:connector-curvature="0" />
    </g>
    <g
       id="g163426"
       transform="matrix(0.1698928,0,0,0.1698928,-193.23389,368.87191)" />
    <g
       id="g2182"
       clip-path="url(#clipPath2617)"
       transform="matrix(0.12995574,0,0,0.12995574,0.19421884,281.19557)">
      <rect
         style="fill:#ffffff;fill-opacity:0.963462;stroke:none;stroke-width:0.401077;stroke-linejoin:round"
         id="rect1137"
         width="49.649075"
         height="48.478317"
         x="6.0608363"
         y="7.4184093"
         rx="0.2258413"
         ry="0.32684526" />
      <g
         id="g2096">
        <path
           style="fill:none;fill-rule:evenodd;stroke:#3c6eb4;stroke-width:1.05833;stroke-linecap:butt;stroke-linejoin:miter;stroke-miterlimit:4;stroke-dasharray:none;stroke-opacity:1"
           d="M 33.01787,30.469089 H 45.73994"
           id="path10821" />
        <path
           id="path10823"
           d="M 35.13455,33.114923 H 47.85662"
           style="fill:none;fill-rule:evenodd;stroke:#3c6eb4;stroke-width:1.05833;stroke-linecap:butt;stroke-linejoin:miter;stroke-miterlimit:4;stroke-dasharray:none;stroke-opacity:1" />
        <g
           style="stroke-width:0.869167"
           transform="matrix(1.1500458,0,0,1.1510087,-1074.8905,32.173551)"
           id="g10875">
          <path
             id="path10825"
             d="m 973.10356,3.3983398 c -2.30839,-3.74257021 -1.79145,-7.3525044 -2.88299,-12.510239 -0.59897,-3.1855248 -2.62142,-5.8149598 -5.25403,-6.7776908 -2.17189,-0.757647 -6.68263,-0.759955 -8.59472,0 -2.63261,0.962731 -4.65498,3.592166 -5.25395,6.7776908 -1.09155,5.1577346 -0.57458,8.76766879 -2.88297,12.510239"
             style="fill:#cccccc;fill-opacity:1;fill-rule:evenodd;stroke:#000000;stroke-width:0.689901;stroke-linecap:butt;stroke-linejoin:miter;stroke-miterlimit:4;stroke-dasharray:none;stroke-opacity:1" />
          <ellipse
             style="opacity:1;fill:#e7e8e9;fill-opacity:1;stroke:none;stroke-width:0.689901;stroke-linecap:square;stroke-linejoin:miter;stroke-miterlimit:4;stroke-dasharray:none;stroke-dashoffset:6;stroke-opacity:1"
             id="ellipse10827"
             cx="966.56354"
             cy="-4.1070371"
             rx="1.1158856"
             ry="1.1746163" />
          <ellipse
             ry="1.1746163"
             rx="1.1158856"
             cy="-4.1070371"
             cx="955.28723"
             id="ellipse10829"
             style="opacity:1;fill:#e7e8e9;fill-opacity:1;stroke:none;stroke-width:0.689901;stroke-linecap:square;stroke-linejoin:miter;stroke-miterlimit:4;stroke-dasharray:none;stroke-dashoffset:6;stroke-opacity:1" />
          <g
             id="g10839"
             style="stroke:#a7a9ac;stroke-width:0.518003;stroke-miterlimit:4;stroke-dasharray:none"
             transform="matrix(0.88789899,0,0,0.88789899,108.02196,0.55783395)">
            <path
               id="path10831"
               d="m 956.41893,-5.9814347 -4.67056,1.2514712"
               style="fill:none;fill-rule:evenodd;stroke:#a7a9ac;stroke-width:0.518003;stroke-linecap:butt;stroke-linejoin:miter;stroke-miterlimit:4;stroke-dasharray:none;stroke-opacity:1" />
            <path
               id="path10833"
               d="m 956.9481,-5.2538306 -4.6966,2.711577"
               style="fill:none;fill-rule:evenodd;stroke:#a7a9ac;stroke-width:0.518003;stroke-linecap:butt;stroke-linejoin:miter;stroke-miterlimit:4;stroke-dasharray:none;stroke-opacity:1" />
            <path
               id="path10835"
               d="m 957.34497,-4.3939348 -4.7625,4.76249998"
               style="fill:none;fill-rule:evenodd;stroke:#a7a9ac;stroke-width:0.518003;stroke-linecap:butt;stroke-linejoin:miter;stroke-miterlimit:4;stroke-dasharray:none;stroke-opacity:1" />
            <path
               id="path10837"
               d="m 957.5434,-3.2694556 -2.434,4.21584432"
               style="fill:none;fill-rule:evenodd;stroke:#a7a9ac;stroke-width:0.518003;stroke-linecap:butt;stroke-linejoin:miter;stroke-miterlimit:4;stroke-dasharray:none;stroke-opacity:1" />
          </g>
          <g
             transform="matrix(-0.88789899,0,0,0.88789899,1814.1581,0.55783389)"
             style="stroke:#a7a9ac;stroke-width:0.518003;stroke-miterlimit:4;stroke-dasharray:none"
             id="g10849">
            <path
               style="fill:none;fill-rule:evenodd;stroke:#a7a9ac;stroke-width:0.518003;stroke-linecap:butt;stroke-linejoin:miter;stroke-miterlimit:4;stroke-dasharray:none;stroke-opacity:1"
               d="m 956.41893,-5.9814347 -4.67056,1.2514712"
               id="path10841" />
            <path
               style="fill:none;fill-rule:evenodd;stroke:#a7a9ac;stroke-width:0.518003;stroke-linecap:butt;stroke-linejoin:miter;stroke-miterlimit:4;stroke-dasharray:none;stroke-opacity:1"
               d="m 956.9481,-5.2538306 -4.6966,2.711577"
               id="path10843" />
            <path
               style="fill:none;fill-rule:evenodd;stroke:#a7a9ac;stroke-width:0.518003;stroke-linecap:butt;stroke-linejoin:miter;stroke-miterlimit:4;stroke-dasharray:none;stroke-opacity:1"
               d="m 957.34497,-4.3939348 -4.7625,4.76249998"
               id="path10845" />
            <path
               style="fill:none;fill-rule:evenodd;stroke:#a7a9ac;stroke-width:0.518003;stroke-linecap:butt;stroke-linejoin:miter;stroke-miterlimit:4;stroke-dasharray:none;stroke-opacity:1"
               d="m 957.5434,-3.2694556 -2.434,4.21584432"
               id="path10847" />
          </g>
          <ellipse
             style="opacity:1;fill:#ffffff;fill-opacity:1;stroke:#60605b;stroke-width:0.689901;stroke-linecap:square;stroke-linejoin:miter;stroke-miterlimit:4;stroke-dasharray:none;stroke-dashoffset:6;stroke-opacity:1"
             id="ellipse10851"
             cx="961.04285"
             cy="-4.9292688"
             rx="3.5825801"
             ry="3.4063873" />
          <ellipse
             transform="scale(-1,1)"
             style="fill:#000000;fill-opacity:1;stroke:#892ca0;stroke-width:0.689901;stroke-linecap:square;stroke-linejoin:miter;stroke-miterlimit:4;stroke-dasharray:none;stroke-dashoffset:0;stroke-opacity:1"
             id="ellipse10853"
             cx="-966.52734"
             cy="-7.8406329"
             rx="1.7252614"
             ry="1.7690334" />
          <path
             style="fill:none;fill-opacity:1;stroke:#000000;stroke-width:0.689901;stroke-linecap:square;stroke-linejoin:miter;stroke-miterlimit:4;stroke-dasharray:none;stroke-dashoffset:0;stroke-opacity:1"
             d="m 968.07427,-11.544209 c -0.34474,-0.448317 -0.89334,-0.733231 -1.45836,-0.757402 -0.53344,-0.02282 -1.07281,0.185834 -1.45201,0.561706"
             id="path10855" />
          <g
             id="g10863"
             style="stroke-width:0.777004;stroke-miterlimit:4;stroke-dasharray:none"
             transform="matrix(0.88789899,0,0,0.88789899,106.61242,0.08798743)">
            <g
               id="g10861"
               transform="translate(0,-0.52916667)"
               style="stroke-width:0.777004">
              <path
                 style="fill:none;fill-rule:evenodd;stroke:#000000;stroke-width:0.777004;stroke-linecap:butt;stroke-linejoin:miter;stroke-miterlimit:4;stroke-dasharray:none;stroke-opacity:1"
                 d="m 962.30591,-5.7829972 0.0993,1.9843749 c 0,0 1.58751,1.4221355 2.51355,-0.033073 0,0 -0.0993,-0.8268214 -0.16541,-1.0914047"
                 id="path10857" />
              <path
                 id="path10859"
                 d="m 962.28751,-5.7829972 -0.0993,1.9843749 c 0,0 -1.58751,1.4221355 -2.51355,-0.033073 0,0 0.0993,-0.8268214 0.16541,-1.0914047"
                 style="fill:none;fill-rule:evenodd;stroke:#000000;stroke-width:0.777004;stroke-linecap:butt;stroke-linejoin:miter;stroke-miterlimit:4;stroke-dasharray:none;stroke-opacity:1" />
            </g>
          </g>
          <path
             id="path10865"
             style="fill:#808080;fill-opacity:1;stroke:#000000;stroke-width:0.689901;stroke-linecap:square;stroke-linejoin:miter;stroke-miterlimit:4;stroke-dasharray:none;stroke-dashoffset:0;stroke-opacity:1"
             d="m 962.57174,-5.5436767 c -0.1202,-0.3110186 -0.1202,-0.9330691 -0.48062,-0.9330691 -0.36047,0 -0.69372,-0.2332673 -1.04826,-0.2332673 -0.35456,0 -0.68781,0.2332673 -1.04828,0.2332673 -0.36046,0 -0.36046,0.6220505 -0.48061,0.9330691 -0.1202,0.3110253 1.52889,1.3218472 1.52889,1.3218472 0,0 1.64903,-1.0108219 1.52888,-1.3218472 z" />
          <ellipse
             ry="1.7690334"
             rx="1.7252614"
             cy="-7.8406329"
             cx="955.36047"
             id="ellipse10867"
             style="fill:#000000;fill-opacity:1;stroke:#892ca0;stroke-width:0.689901;stroke-linecap:square;stroke-linejoin:miter;stroke-miterlimit:4;stroke-dasharray:none;stroke-dashoffset:0;stroke-opacity:1" />
          <ellipse
             style="fill:#ffffff;fill-opacity:1;stroke:none;stroke-width:0.689901;stroke-linecap:square;stroke-linejoin:miter;stroke-miterlimit:4;stroke-dasharray:none;stroke-dashoffset:0;stroke-opacity:1"
             id="ellipse10869"
             cx="954.78467"
             cy="-8.3384542"
             rx="0.8483994"
             ry="0.88143349" />
          <path
             id="path10871"
             d="m 953.81353,-11.544209 c 0.34474,-0.448315 0.89333,-0.73323 1.45835,-0.757402 0.53344,-0.02282 1.07281,0.185833 1.45201,0.561706"
             style="fill:none;fill-opacity:1;stroke:#000000;stroke-width:0.689901;stroke-linecap:square;stroke-linejoin:miter;stroke-miterlimit:4;stroke-dasharray:none;stroke-dashoffset:0;stroke-opacity:1" />
          <ellipse
             ry="0.88143349"
             rx="0.8483994"
             cy="-8.3384542"
             cx="965.94666"
             id="ellipse10873"
             style="fill:#ffffff;fill-opacity:1;stroke:none;stroke-width:0.689901;stroke-linecap:square;stroke-linejoin:miter;stroke-miterlimit:4;stroke-dasharray:none;stroke-dashoffset:0;stroke-opacity:1" />
        </g>
        <path
           id="path10877"
           d="M 17.24649,36.027618 H 50.17414"
           style="fill:none;fill-rule:evenodd;stroke:#3c6eb4;stroke-width:1.05833;stroke-linecap:butt;stroke-linejoin:miter;stroke-miterlimit:4;stroke-dasharray:none;stroke-opacity:1" />
        <g
           style="stroke-width:1.20412"
           transform="matrix(0.83048493,0,0,0.83048493,-766.41499,30.310673)"
           clip-path="url(#clipPath81511)"
           id="g10929">
          <path
             id="path10879"
             d="m 958.31594,13.737399 c -0.26199,-1.782196 -0.38924,-3.720848 -0.8727,-6.0017375 -0.53058,-2.8174518 -2.32212,-5.1430676 -4.65415,-5.9945597 -1.92393,-0.6701043 -5.91966,-0.6721461 -7.61343,0 -2.33204,0.8514921 -4.1235,3.1771079 -4.65409,5.9945597 -0.48346,2.2808895 -0.61071,4.2195415 -0.87269,6.0017375"
             style="fill:#cccccc;fill-opacity:1;fill-rule:evenodd;stroke:#000000;stroke-width:0.955767;stroke-linecap:butt;stroke-linejoin:miter;stroke-miterlimit:4;stroke-dasharray:none;stroke-opacity:1" />
          <ellipse
             style="opacity:1;fill:#e7e8e9;fill-opacity:1;stroke:none;stroke-width:0.955767;stroke-linecap:square;stroke-linejoin:miter;stroke-miterlimit:4;stroke-dasharray:none;stroke-dashoffset:6;stroke-opacity:1"
             id="ellipse10881"
             cx="954.20367"
             cy="12.16224"
             rx="0.98848081"
             ry="1.0388949" />
          <ellipse
             ry="1.0388949"
             rx="0.98848081"
             cy="12.16224"
             cx="944.21478"
             id="ellipse10883"
             style="opacity:1;fill:#e7e8e9;fill-opacity:1;stroke:none;stroke-width:0.955767;stroke-linecap:square;stroke-linejoin:miter;stroke-miterlimit:4;stroke-dasharray:none;stroke-dashoffset:6;stroke-opacity:1" />
          <g
             id="g10893"
             style="stroke:#a7a9ac;stroke-width:0.810747;stroke-miterlimit:4;stroke-dasharray:none"
             transform="matrix(0.7865243,0,0,0.7853064,193.68501,16.288101)">
            <path
               id="path10885"
               d="m 956.41893,-5.9814347 -4.67056,1.2514712"
               style="fill:none;fill-rule:evenodd;stroke:#a7a9ac;stroke-width:0.810747;stroke-linecap:butt;stroke-linejoin:miter;stroke-miterlimit:4;stroke-dasharray:none;stroke-opacity:1" />
            <path
               id="path10887"
               d="m 956.9481,-5.2538306 -4.6966,2.711577"
               style="fill:none;fill-rule:evenodd;stroke:#a7a9ac;stroke-width:0.810747;stroke-linecap:butt;stroke-linejoin:miter;stroke-miterlimit:4;stroke-dasharray:none;stroke-opacity:1" />
            <path
               id="path10889"
               d="m 957.34497,-4.3939348 -4.7625,4.76249998"
               style="fill:none;fill-rule:evenodd;stroke:#a7a9ac;stroke-width:0.810747;stroke-linecap:butt;stroke-linejoin:miter;stroke-miterlimit:4;stroke-dasharray:none;stroke-opacity:1" />
            <path
               id="path10891"
               d="m 957.5434,-3.2694556 -2.434,4.21584432"
               style="fill:none;fill-rule:evenodd;stroke:#a7a9ac;stroke-width:0.810747;stroke-linecap:butt;stroke-linejoin:miter;stroke-miterlimit:4;stroke-dasharray:none;stroke-opacity:1" />
          </g>
          <g
             transform="matrix(-0.7865243,0,0,0.7853064,1705.0252,16.288101)"
             style="stroke:#a7a9ac;stroke-width:0.810747;stroke-miterlimit:4;stroke-dasharray:none"
             id="g10903">
            <path
               style="fill:none;fill-rule:evenodd;stroke:#a7a9ac;stroke-width:0.810747;stroke-linecap:butt;stroke-linejoin:miter;stroke-miterlimit:4;stroke-dasharray:none;stroke-opacity:1"
               d="m 956.41893,-5.9814347 -4.67056,1.2514712"
               id="path10895" />
            <path
               style="fill:none;fill-rule:evenodd;stroke:#a7a9ac;stroke-width:0.810747;stroke-linecap:butt;stroke-linejoin:miter;stroke-miterlimit:4;stroke-dasharray:none;stroke-opacity:1"
               d="m 956.9481,-5.2538306 -4.6966,2.711577"
               id="path10897" />
            <path
               style="fill:none;fill-rule:evenodd;stroke:#a7a9ac;stroke-width:0.810747;stroke-linecap:butt;stroke-linejoin:miter;stroke-miterlimit:4;stroke-dasharray:none;stroke-opacity:1"
               d="m 957.34497,-4.3939348 -4.7625,4.76249998"
               id="path10899" />
            <path
               style="fill:none;fill-rule:evenodd;stroke:#a7a9ac;stroke-width:0.810747;stroke-linecap:butt;stroke-linejoin:miter;stroke-miterlimit:4;stroke-dasharray:none;stroke-opacity:1"
               d="m 957.5434,-3.2694556 -2.434,4.21584432"
               id="path10901" />
          </g>
          <ellipse
             style="opacity:1;fill:#ffffff;fill-opacity:1;stroke:#60605b;stroke-width:0.955767;stroke-linecap:square;stroke-linejoin:miter;stroke-miterlimit:4;stroke-dasharray:none;stroke-dashoffset:6;stroke-opacity:1"
             id="ellipse10905"
             cx="949.31329"
             cy="11.435012"
             rx="3.1735437"
             ry="3.0127952" />
          <ellipse
             transform="scale(-1,1)"
             style="fill:#000000;fill-opacity:1;stroke:#892ca0;stroke-width:0.955767;stroke-linecap:square;stroke-linejoin:miter;stroke-miterlimit:4;stroke-dasharray:none;stroke-dashoffset:0;stroke-opacity:1"
             id="ellipse10907"
             cx="-954.17163"
             cy="8.8600426"
             rx="1.528282"
             ry="1.5646298" />
          <path
             style="fill:none;fill-opacity:1;stroke:#000000;stroke-width:0.955767;stroke-linecap:square;stroke-linejoin:miter;stroke-miterlimit:4;stroke-dasharray:none;stroke-dashoffset:0;stroke-opacity:1"
             d="m 955.54199,5.5843938 c -0.30575,-0.3965787 -0.79155,-0.6484892 -1.29185,-0.6698876 -0.4724,-0.020205 -0.95006,0.1642901 -1.28623,0.4968037"
             id="path10909" />
          <g
             id="g10917"
             style="stroke-width:1.21612;stroke-miterlimit:4;stroke-dasharray:none"
             transform="matrix(0.7865243,0,0,0.7853064,192.4364,15.872544)">
            <g
               style="stroke-width:1.21612"
               id="g10915"
               transform="translate(0,-0.52916667)">
              <path
                 style="fill:none;fill-rule:evenodd;stroke:#000000;stroke-width:1.21612;stroke-linecap:butt;stroke-linejoin:miter;stroke-miterlimit:4;stroke-dasharray:none;stroke-opacity:1"
                 d="m 962.30591,-5.7829972 0.0993,1.9843749 c 0,0 1.58751,1.4221355 2.51355,-0.033073 0,0 -0.0993,-0.8268214 -0.16541,-1.0914047"
                 id="path10911" />
              <path
                 id="path10913"
                 d="m 962.28751,-5.7829972 -0.0993,1.9843749 c 0,0 -1.58751,1.4221355 -2.51355,-0.033073 0,0 0.0993,-0.8268214 0.16541,-1.0914047"
                 style="fill:none;fill-rule:evenodd;stroke:#000000;stroke-width:1.21612;stroke-linecap:butt;stroke-linejoin:miter;stroke-miterlimit:4;stroke-dasharray:none;stroke-opacity:1" />
            </g>
          </g>
          <path
             id="path10919"
             style="fill:#808080;fill-opacity:1;stroke:#000000;stroke-width:0.955767;stroke-linecap:square;stroke-linejoin:miter;stroke-miterlimit:4;stroke-dasharray:none;stroke-dashoffset:0;stroke-opacity:1"
             d="m 950.66771,10.891591 c -0.10648,-0.275082 -0.10648,-0.825257 -0.42575,-0.825257 -0.31931,0 -0.61451,-0.2063147 -0.92858,-0.2063147 -0.31407,0 -0.60928,0.2063147 -0.92858,0.2063147 -0.31932,0 -0.31932,0.550175 -0.42575,0.825257 -0.10647,0.275088 1.35433,1.169114 1.35433,1.169114 0,0 1.46076,-0.894026 1.35433,-1.169114 z" />
          <ellipse
             ry="1.5646298"
             rx="1.528282"
             cy="8.8600426"
             cx="944.27972"
             id="ellipse10921"
             style="fill:#000000;fill-opacity:1;stroke:#892ca0;stroke-width:0.955767;stroke-linecap:square;stroke-linejoin:miter;stroke-miterlimit:4;stroke-dasharray:none;stroke-dashoffset:0;stroke-opacity:1" />
          <ellipse
             style="fill:#ffffff;fill-opacity:1;stroke:none;stroke-width:0.955767;stroke-linecap:square;stroke-linejoin:miter;stroke-miterlimit:4;stroke-dasharray:none;stroke-dashoffset:0;stroke-opacity:1"
             id="ellipse10923"
             cx="943.76965"
             cy="8.4197426"
             rx="0.75153452"
             ry="0.77958798" />
          <path
             id="path10925"
             d="m 942.90945,5.5843938 c 0.30575,-0.3965787 0.79155,-0.6484892 1.29185,-0.6698876 0.4724,-0.020205 0.95006,0.1642901 1.28623,0.4968037"
             style="fill:none;fill-opacity:1;stroke:#000000;stroke-width:0.955767;stroke-linecap:square;stroke-linejoin:miter;stroke-miterlimit:4;stroke-dasharray:none;stroke-dashoffset:0;stroke-opacity:1" />
          <ellipse
             ry="0.77958798"
             rx="0.75153452"
             cy="8.5291576"
             cx="953.76178"
             id="ellipse10927"
             style="fill:#ffffff;fill-opacity:1;stroke:none;stroke-width:0.955767;stroke-linecap:square;stroke-linejoin:miter;stroke-miterlimit:4;stroke-dasharray:none;stroke-dashoffset:0;stroke-opacity:1" />
        </g>
        <path
           style="fill:none;fill-opacity:1;stroke:#892ca0;stroke-width:1.05833;stroke-linecap:round;stroke-linejoin:round;stroke-miterlimit:4;stroke-dasharray:none;stroke-opacity:1"
           d="m 31.00631,55.019139 -19.29817,-9.23285 -4.82036,-20.8616 13.2871,-16.780616 21.38926,-0.06408 13.38485,16.701146 -4.69887,20.8897 z"
           id="path10931" />
        <path
           style="fill:none;fill-rule:evenodd;stroke:#3c6eb4;stroke-width:1.05833;stroke-linecap:butt;stroke-linejoin:miter;stroke-miterlimit:4;stroke-dasharray:none;stroke-opacity:1"
           d="M 12.48399,40.260952 H 32.31543"
           id="path10933" />
        <path
           id="path10935"
           d="M 21.9054,44.227421 H 49.40748"
           style="fill:none;fill-rule:evenodd;stroke:#3c6eb4;stroke-width:1.05833;stroke-linecap:butt;stroke-linejoin:miter;stroke-miterlimit:4;stroke-dasharray:none;stroke-opacity:1" />
        <g
           transform="translate(-930.18489,32.618179)"
           id="g10979">
          <path
             style="fill:#cccccc;fill-opacity:1;fill-rule:evenodd;stroke:#000000;stroke-width:0.79375;stroke-linecap:butt;stroke-linejoin:miter;stroke-miterlimit:4;stroke-dasharray:none;stroke-opacity:1"
             d="m 977.46866,11.110796 c -0.23262,-1.5824091 -0.34561,-3.3037374 -0.77487,-5.3289381 -0.4711,-2.5016132 -2.06181,-4.566525 -4.13242,-5.32256411 -1.70825,-0.59498494 -5.25606,-0.59679785 -6.75995,0 -2.07062,0.75603911 -3.66125,2.82095091 -4.13236,5.32256411 -0.42927,2.0252007 -0.54225,3.746529 -0.77486,5.3289381"
             id="path10937" />
          <ellipse
             ry="0.92243373"
             rx="0.87767112"
             cy="9.7122078"
             cx="973.81744"
             id="ellipse10939"
             style="opacity:1;fill:#e7e8e9;fill-opacity:1;stroke:none;stroke-width:0.79375;stroke-linecap:square;stroke-linejoin:miter;stroke-miterlimit:4;stroke-dasharray:none;stroke-dashoffset:6;stroke-opacity:1" />
          <ellipse
             style="opacity:1;fill:#e7e8e9;fill-opacity:1;stroke:none;stroke-width:0.79375;stroke-linecap:square;stroke-linejoin:miter;stroke-miterlimit:4;stroke-dasharray:none;stroke-dashoffset:6;stroke-opacity:1"
             id="ellipse10941"
             cx="964.9483"
             cy="9.7122078"
             rx="0.87767112"
             ry="0.92243373" />
          <g
             transform="matrix(0.69835413,0,0,0.69727276,299.02348,11.966021)"
             style="stroke:#a7a9ac;stroke-width:0.758321;stroke-miterlimit:4;stroke-dasharray:none"
             id="g10947">
            <path
               style="fill:none;fill-rule:evenodd;stroke:#a7a9ac;stroke-width:0.758321;stroke-linecap:butt;stroke-linejoin:miter;stroke-miterlimit:4;stroke-dasharray:none;stroke-opacity:1"
               d="m 955.74614,-3.9599306 -4.67056,1.2514712"
               id="path10943" />
            <path
               style="fill:none;fill-rule:evenodd;stroke:#a7a9ac;stroke-width:0.758321;stroke-linecap:butt;stroke-linejoin:miter;stroke-miterlimit:4;stroke-dasharray:none;stroke-opacity:1"
               d="m 956.27531,-3.2323265 -4.6966,2.71157695"
               id="path10945" />
          </g>
          <g
             id="g10953"
             style="stroke:#a7a9ac;stroke-width:0.758321;stroke-miterlimit:4;stroke-dasharray:none"
             transform="matrix(-0.69835413,0,0,0.69727276,1640.4712,13.375562)">
            <path
               id="path10949"
               d="m 956.41893,-5.9814347 -4.67056,1.2514712"
               style="fill:none;fill-rule:evenodd;stroke:#a7a9ac;stroke-width:0.758321;stroke-linecap:butt;stroke-linejoin:miter;stroke-miterlimit:4;stroke-dasharray:none;stroke-opacity:1" />
            <path
               id="path10951"
               d="m 956.9481,-5.2538306 -4.6966,2.711577"
               style="fill:none;fill-rule:evenodd;stroke:#a7a9ac;stroke-width:0.758321;stroke-linecap:butt;stroke-linejoin:miter;stroke-miterlimit:4;stroke-dasharray:none;stroke-opacity:1" />
          </g>
          <ellipse
             ry="2.6750579"
             rx="2.8177862"
             cy="9.0665035"
             cx="969.47528"
             id="ellipse10955"
             style="opacity:1;fill:#ffffff;fill-opacity:1;stroke:#60605b;stroke-width:0.79375;stroke-linecap:square;stroke-linejoin:miter;stroke-miterlimit:4;stroke-dasharray:none;stroke-dashoffset:6;stroke-opacity:1" />
          <ellipse
             ry="1.3892332"
             rx="1.3569601"
             cy="6.7801905"
             cx="-973.789"
             id="ellipse10957"
             style="fill:#000000;fill-opacity:1;stroke:#892ca0;stroke-width:0.79375;stroke-linecap:square;stroke-linejoin:miter;stroke-miterlimit:4;stroke-dasharray:none;stroke-dashoffset:0;stroke-opacity:1"
             transform="scale(-1,1)" />
          <path
             id="path10959"
             d="m 975.00567,3.8717489 c -0.27147,-0.3521218 -0.70281,-0.575793 -1.14703,-0.5947926 -0.41945,-0.01794 -0.84356,0.1458731 -1.14204,0.4411116"
             style="fill:none;fill-opacity:1;stroke:#000000;stroke-width:0.79375;stroke-linecap:square;stroke-linejoin:miter;stroke-miterlimit:4;stroke-dasharray:none;stroke-dashoffset:0;stroke-opacity:1" />
          <g
             transform="matrix(0.69835413,0,0,0.69727276,297.44499,13.006589)"
             style="stroke-width:1.13748;stroke-miterlimit:4;stroke-dasharray:none"
             id="g10967">
            <g
               transform="translate(0,-0.52916667)"
               id="g10965"
               style="stroke-width:1.13748">
              <path
                 id="path10961"
                 d="m 962.30591,-5.7829972 0.0993,1.9843749 c 0,0 1.58751,1.4221355 2.51355,-0.033073 0,0 -0.0993,-0.8268214 -0.16541,-1.0914047"
                 style="fill:none;fill-rule:evenodd;stroke:#000000;stroke-width:1.13748;stroke-linecap:butt;stroke-linejoin:miter;stroke-miterlimit:4;stroke-dasharray:none;stroke-opacity:1" />
              <path
                 style="fill:none;fill-rule:evenodd;stroke:#000000;stroke-width:1.13748;stroke-linecap:butt;stroke-linejoin:miter;stroke-miterlimit:4;stroke-dasharray:none;stroke-opacity:1"
                 d="m 962.28751,-5.7829972 -0.0993,1.9843749 c 0,0 -1.58751,1.4221355 -2.51355,-0.033073 0,0 0.0993,-0.8268214 0.16541,-1.0914047"
                 id="path10963" />
            </g>
          </g>
          <path
             d="m 970.6778,8.5840058 c -0.0945,-0.2442451 -0.0945,-0.7327449 -0.37802,-0.7327449 -0.28351,0 -0.54562,-0.1831865 -0.82448,-0.1831865 -0.27887,0 -0.54098,0.1831865 -0.82449,0.1831865 -0.28352,0 -0.28352,0.4884998 -0.37802,0.7327449 -0.0945,0.2442506 1.20251,1.0380563 1.20251,1.0380563 0,0 1.297,-0.7938057 1.2025,-1.0380563 z"
             style="fill:#808080;fill-opacity:1;stroke:#000000;stroke-width:0.79375;stroke-linecap:square;stroke-linejoin:miter;stroke-miterlimit:4;stroke-dasharray:none;stroke-dashoffset:0;stroke-opacity:1"
             id="path10969" />
          <ellipse
             style="fill:#000000;fill-opacity:1;stroke:#892ca0;stroke-width:0.79375;stroke-linecap:square;stroke-linejoin:miter;stroke-miterlimit:4;stroke-dasharray:none;stroke-dashoffset:0;stroke-opacity:1"
             id="ellipse10971"
             cx="965.00598"
             cy="6.7801905"
             rx="1.3569601"
             ry="1.3892332" />
          <ellipse
             ry="0.69219536"
             rx="0.66728675"
             cy="6.3892479"
             cx="964.5531"
             id="ellipse10973"
             style="fill:#ffffff;fill-opacity:1;stroke:none;stroke-width:0.79375;stroke-linecap:square;stroke-linejoin:miter;stroke-miterlimit:4;stroke-dasharray:none;stroke-dashoffset:0;stroke-opacity:1" />
          <path
             style="fill:none;fill-opacity:1;stroke:#000000;stroke-width:0.79375;stroke-linecap:square;stroke-linejoin:miter;stroke-miterlimit:4;stroke-dasharray:none;stroke-dashoffset:0;stroke-opacity:1"
             d="m 963.78925,3.8717489 c 0.27148,-0.3521208 0.70281,-0.5757916 1.14703,-0.5947926 0.41945,-0.017942 0.84357,0.1458717 1.14205,0.4411116"
             id="path10975" />
          <ellipse
             style="fill:#ffffff;fill-opacity:1;stroke:none;stroke-width:0.79375;stroke-linecap:square;stroke-linejoin:miter;stroke-miterlimit:4;stroke-dasharray:none;stroke-dashoffset:0;stroke-opacity:1"
             id="ellipse10977"
             cx="973.4754"
             cy="6.4801154"
             rx="0.66728675"
             ry="0.69219536" />
        </g>
        <path
           style="fill:none;fill-rule:evenodd;stroke:#3c6eb4;stroke-width:1.05833;stroke-linecap:butt;stroke-linejoin:miter;stroke-miterlimit:4;stroke-dasharray:none;stroke-opacity:1"
           d="M 19.78871,46.873256 H 32.51078"
           id="path10981" />
        <path
           id="path10983"
           d="m 27.19703,49.519091 h 10.477"
           style="fill:none;fill-rule:evenodd;stroke:#3c6eb4;stroke-width:1.05833;stroke-linecap:butt;stroke-linejoin:miter;stroke-miterlimit:4;stroke-dasharray:none;stroke-opacity:1" />
      </g>
    </g>
  </g>
</svg>
