<?xml version="1.0" encoding="UTF-8" standalone="no"?>
<svg
   version="1.1"
   id="PowerShell"
   x="0px"
   y="0px"
   width="1.5cm"
   height="2cm"
   viewBox="0 0 56.692916 75.590555"
   xml:space="preserve"
   sodipodi:docname="PowerShell.svg"
   inkscape:version="1.1.2 (0a00cf5339, 2022-02-04)"
   xmlns:inkscape="http://www.inkscape.org/namespaces/inkscape"
   xmlns:sodipodi="http://sodipodi.sourceforge.net/DTD/sodipodi-0.dtd"
   xmlns="http://www.w3.org/2000/svg"
   xmlns:svg="http://www.w3.org/2000/svg"><defs
   id="defs17" /><sodipodi:namedview
   id="namedview15"
   pagecolor="#505050"
   bordercolor="#ffffff"
   borderopacity="1"
   inkscape:pageshadow="0"
   inkscape:pageopacity="0"
   inkscape:pagecheckerboard="1"
   showgrid="false"
   units="cm"
   width="1.5cm"
   inkscape:zoom="7.9899073"
   inkscape:cx="40.926632"
   inkscape:cy="46.746475"
   inkscape:window-width="3766"
   inkscape:window-height="1536"
   inkscape:window-x="74"
   inkscape:window-y="27"
   inkscape:window-maximized="1"
   inkscape:current-layer="PowerShell"
   inkscape:document-units="cm" />
<g
   id="g12"
   transform="matrix(0.23848016,0,0,0.23848016,3.5128794,5.2364659)">
	<path
   style="clip-rule:evenodd;display:none;fill:#2671be;fill-rule:evenodd"
   d="m -47.547,226.872 c 0,-97.129 0.094,-194.259 -0.195,-291.387 -0.021,-6.982 1.404,-8.411 8.388,-8.389 94.397,0.292 188.798,0.292 283.195,0 6.984,-0.022 8.41,1.407 8.389,8.389 -0.289,97.128 -0.195,194.258 -0.195,291.387 -3.238,2.008 -6.837,1.129 -10.268,1.131 -93.015,0.049 -186.031,0.049 -279.047,0 -3.431,-0.002 -7.03,0.877 -10.267,-1.131 z"
   id="path2" />
	<path
   style="clip-rule:evenodd;fill:#e0eaf5;fill-rule:evenodd"
   d="m 120.14,0.032 c 23.011,-0.008 46.023,-0.078 69.034,0.019 13.68,0.056 17.537,4.627 14.588,18.137 -8.636,39.566 -17.466,79.092 -26.415,118.589 -2.83,12.484 -9.332,17.598 -22.465,17.637 -46.023,0.137 -92.046,0.152 -138.068,-0.006 C 1.771,154.355 -2.186,149.26 1.055,135.004 9.849,96.287 18.69,57.582 27.602,18.892 30.997,4.148 36.099,0.1 51.104,0.057 74.116,-0.008 97.128,0.04 120.14,0.032 Z"
   id="path4" />
	<path
   style="clip-rule:evenodd;fill:#2671be;fill-rule:evenodd"
   d="M 85.365,149.813 C 62.351,149.805 39.336,149.911 16.323,149.76 4.653,149.684 2.531,146.93 5.158,135.516 14.064,96.806 23.257,58.161 31.965,19.407 34.3,9.013 39.337,4.419 50.473,4.522 c 46.024,0.427 92.056,0.137 138.083,0.184 11.543,0.011 13.481,2.48 10.89,14.187 -8.413,38.007 -16.879,76.003 -25.494,113.965 -3.224,14.207 -6.938,16.918 -21.885,16.951 -22.234,0.047 -44.469,0.012 -66.702,0.004 z"
   id="path6" />
	<path
   style="clip-rule:evenodd;fill:#fdfdfe;fill-rule:evenodd"
   d="m 104.948,73.951 c -1.543,-1.81 -3.237,-3.894 -5.031,-5.886 C 89.744,56.765 79.661,45.381 69.307,34.25 64.569,29.156 63.059,24.209 68.749,19.181 c 5.623,-4.97 11.148,-4.53 16.306,1.188 14.365,15.919 28.713,31.856 43.316,47.556 5.452,5.864 4.182,9.851 -1.823,14.196 -23.049,16.683 -45.968,33.547 -68.862,50.443 -5.146,3.799 -10.052,4.75 -14.209,-0.861 -4.586,-6.189 -0.343,-9.871 4.414,-13.335 17.013,-12.392 33.993,-24.83 50.9,-37.366 2.355,-1.746 5.736,-2.764 6.157,-7.051 z"
   id="path8" />
	<path
   style="clip-rule:evenodd;fill:#fcfdfd;fill-rule:evenodd"
   d="m 112.235,133.819 c -6.196,0 -12.401,0.213 -18.583,-0.068 -4.932,-0.223 -7.9,-2.979 -7.838,-8.174 0.06,-4.912 2.536,-8.605 7.463,-8.738 13.542,-0.363 27.104,-0.285 40.651,-0.02 4.305,0.084 7.483,2.889 7.457,7.375 -0.031,5.146 -2.739,9.133 -8.25,9.465 -6.944,0.42 -13.931,0.104 -20.899,0.104 -0.001,0.017 -0.001,0.037 -0.001,0.056 z"
   id="path10" />
</g>
<text
   xml:space="preserve"
   style="font-style:normal;font-weight:normal;font-size:10.2869px;line-height:1;font-family:sans-serif;text-align:center;letter-spacing:0px;word-spacing:0px;text-anchor:middle;fill:#000000;fill-opacity:1;stroke:none;stroke-width:1.10217"
   x="28.375164"
   y="61.220963"
   id="text3728"><tspan
     sodipodi:role="line"
     x="28.375162"
     y="61.220963"
     style="font-size:10.2869px;text-align:center;text-anchor:middle;stroke-width:1.10217"
     id="tspan1977">PowerShell</tspan></text></svg>
