<?xml version="1.0" encoding="UTF-8" standalone="no"?>
<!-- Created with Inkscape (http://www.inkscape.org/) -->

<svg
   xmlns:dc="http://purl.org/dc/elements/1.1/"
   xmlns:cc="http://creativecommons.org/ns#"
   xmlns:rdf="http://www.w3.org/1999/02/22-rdf-syntax-ns#"
   xmlns:svg="http://www.w3.org/2000/svg"
   xmlns="http://www.w3.org/2000/svg"
   xmlns:xlink="http://www.w3.org/1999/xlink"
   xmlns:sodipodi="http://sodipodi.sourceforge.net/DTD/sodipodi-0.dtd"
   xmlns:inkscape="http://www.inkscape.org/namespaces/inkscape"
   width="1.5cm"
   height="2cm"
   viewBox="0 0 14.999999 20"
   version="1.1"
   id="svg8"
   inkscape:version="0.92.4 (5da689c313, 2019-01-14)"
   sodipodi:docname="python.svg">
  <defs
     id="defs2">
    <linearGradient
       id="linearGradient2795">
      <stop
         id="stop2797"
         offset="0"
         style="stop-color:#b8b8b8;stop-opacity:0.49803922" />
      <stop
         id="stop2799"
         offset="1"
         style="stop-color:#7f7f7f;stop-opacity:0" />
    </linearGradient>
    <linearGradient
       id="linearGradient2787">
      <stop
         id="stop2789"
         offset="0"
         style="stop-color:#7f7f7f;stop-opacity:0.5" />
      <stop
         id="stop2791"
         offset="1"
         style="stop-color:#7f7f7f;stop-opacity:0" />
    </linearGradient>
    <linearGradient
       id="linearGradient3676">
      <stop
         id="stop3678"
         offset="0"
         style="stop-color:#b2b2b2;stop-opacity:0.5" />
      <stop
         id="stop3680"
         offset="1"
         style="stop-color:#b3b3b3;stop-opacity:0" />
    </linearGradient>
    <linearGradient
       id="linearGradient3236">
      <stop
         id="stop3244"
         offset="0"
         style="stop-color:#f4f4f4;stop-opacity:1" />
      <stop
         id="stop3240"
         offset="1"
         style="stop-color:#ffffff;stop-opacity:1" />
    </linearGradient>
    <linearGradient
       id="linearGradient4671">
      <stop
         id="stop4673"
         offset="0"
         style="stop-color:#ffd43b;stop-opacity:1" />
      <stop
         id="stop4675"
         offset="1"
         style="stop-color:#ffe873;stop-opacity:1" />
    </linearGradient>
    <linearGradient
       id="linearGradient4689">
      <stop
         id="stop4691"
         offset="0"
         style="stop-color:#5a9fd4;stop-opacity:1" />
      <stop
         id="stop4693"
         offset="1"
         style="stop-color:#306998;stop-opacity:1" />
    </linearGradient>
    <linearGradient
       gradientTransform="translate(100.2702,99.61116)"
       gradientUnits="userSpaceOnUse"
       xlink:href="#linearGradient4671"
       id="linearGradient2987"
       y2="144.75717"
       x2="-65.308502"
       y1="144.75717"
       x1="224.23996" />
    <linearGradient
       gradientTransform="translate(100.2702,99.61116)"
       gradientUnits="userSpaceOnUse"
       xlink:href="#linearGradient4689"
       id="linearGradient2990"
       y2="76.313133"
       x2="26.670298"
       y1="77.475983"
       x1="172.94208" />
    <linearGradient
       gradientTransform="matrix(0.562541,0,0,0.567972,-11.5974,-7.60954)"
       gradientUnits="userSpaceOnUse"
       xlink:href="#linearGradient4671"
       id="linearGradient2255"
       y2="144.75717"
       x2="-65.308502"
       y1="144.75717"
       x1="224.23996" />
    <linearGradient
       gradientTransform="matrix(0.562541,0,0,0.567972,-11.5974,-7.60954)"
       gradientUnits="userSpaceOnUse"
       xlink:href="#linearGradient4689"
       id="linearGradient2258"
       y2="76.313133"
       x2="26.670298"
       y1="76.176224"
       x1="172.94208" />
    <radialGradient
       gradientTransform="matrix(1,0,0,0.177966,0,108.7434)"
       gradientUnits="userSpaceOnUse"
       xlink:href="#linearGradient2795"
       id="radialGradient2801"
       fy="132.28575"
       fx="61.518883"
       r="29.036913"
       cy="132.28575"
       cx="61.518883" />
    <linearGradient
       gradientTransform="matrix(0.14883897,0,0,0.15027592,-48.163236,262.28433)"
       gradientUnits="userSpaceOnUse"
       xlink:href="#linearGradient4671"
       id="linearGradient1475"
       y2="137.27299"
       x2="112.03144"
       y1="192.35176"
       x1="150.96111" />
    <linearGradient
       gradientTransform="matrix(0.14883897,0,0,0.15027592,-48.163236,262.28433)"
       gradientUnits="userSpaceOnUse"
       xlink:href="#linearGradient4689"
       id="linearGradient1478"
       y2="114.39767"
       x2="135.66525"
       y1="20.603781"
       x1="26.648937" />
    <radialGradient
       gradientTransform="matrix(0,-0.06348597,0.27904758,1.0031798e-7,-66.342672,303.07365)"
       gradientUnits="userSpaceOnUse"
       xlink:href="#linearGradient2795"
       id="radialGradient1480"
       fy="132.28575"
       fx="61.518883"
       r="29.036913"
       cy="132.28575"
       cx="61.518883" />
  </defs>
  <sodipodi:namedview
     id="base"
     pagecolor="#ffffff"
     bordercolor="#666666"
     borderopacity="1.0"
     inkscape:pageopacity="0.0"
     inkscape:pageshadow="2"
     inkscape:zoom="5.6568543"
     inkscape:cx="24.213631"
     inkscape:cy="22.823178"
     inkscape:document-units="mm"
     inkscape:current-layer="layer1"
     showgrid="false"
     units="cm"
     inkscape:window-width="1920"
     inkscape:window-height="1001"
     inkscape:window-x="-9"
     inkscape:window-y="-9"
     inkscape:window-maximized="1" />
  <metadata
     id="metadata5">
    <rdf:RDF>
      <cc:Work
         rdf:about="">
        <dc:format>image/svg+xml</dc:format>
        <dc:type
           rdf:resource="http://purl.org/dc/dcmitype/StillImage" />
        <dc:title></dc:title>
      </cc:Work>
    </rdf:RDF>
  </metadata>
  <g
     inkscape:label="Ebene 1"
     inkscape:groupmode="layer"
     id="layer1"
     transform="translate(0,-277)">
    <text
       xml:space="preserve"
       style="font-style:normal;font-weight:normal;font-size:10.58333302px;line-height:1.25;font-family:sans-serif;text-align:center;letter-spacing:0px;word-spacing:0px;text-anchor:middle;fill:#000000;fill-opacity:1;stroke:none;stroke-width:0.26458332"
       x="7.476315"
       y="295.61148"
       id="text3728"><tspan
         sodipodi:role="line"
         id="tspan3726"
         x="7.476315"
         y="295.61148"
         style="font-size:3.88055563px;text-align:center;text-anchor:middle;stroke-width:0.26458332">Python</tspan></text>
    <g
       id="g947"
       transform="matrix(0.45792253,0,0,0.45792253,21.004646,156.27674)">
      <path
         d="m -29.66624,265.38083 c -1.212759,0.006 -2.370916,0.10906 -3.389974,0.28938 -3.00202,0.53036 -3.54707,1.64045 -3.547071,3.68764 v 2.70371 h 7.094141 v 0.90123 h -7.094141 -2.662369 c -2.061755,0 -3.867087,1.23924 -4.431771,3.59668 -0.651357,2.70218 -0.680248,4.38839 0,7.2099 0.504277,2.10022 1.708558,3.59668 3.770312,3.59668 h 2.439128 v -3.24115 c 0,-2.34153 2.025953,-4.40696 4.431771,-4.40696 h 7.085872 c 1.972456,0 3.547071,-1.62406 3.54707,-3.60495 v -6.75514 c 0,-1.92256 -1.62189,-3.36677 -3.54707,-3.68764 -1.218667,-0.20286 -2.48314,-0.29502 -3.695898,-0.28938 z m -3.836459,2.17454 c 0.732776,0 1.331185,0.60818 1.331185,1.35599 0,0.74516 -0.598409,1.34772 -1.331185,1.34772 -0.735403,0 -1.331185,-0.60256 -1.331185,-1.34772 0,-0.74781 0.595782,-1.35599 1.331185,-1.35599 z"
         style="fill:url(#linearGradient1478);fill-opacity:1;stroke-width:0.26458332"
         id="path1948"
         inkscape:connector-curvature="0" />
      <path
         d="m -21.538571,272.96279 v 3.1502 c 0,2.4423 -2.070602,4.49791 -4.431771,4.49791 h -7.085872 c -1.940939,0 -3.54707,1.66119 -3.547071,3.60495 v 6.75515 c 0,1.92255 1.671793,3.05337 3.547071,3.60494 2.245606,0.6603 4.399025,0.77963 7.085872,0 1.785978,-0.5171 3.547071,-1.55776 3.54707,-3.60494 v -2.70371 h -7.085872 v -0.90124 h 7.085872 3.547072 c 2.061755,0 2.830049,-1.43812 3.547067,-3.59668 0.740656,-2.22221 0.709142,-4.35922 0,-7.2099 -0.509529,-2.05249 -1.48269,-3.59668 -3.547067,-3.59668 z m -3.985287,17.10697 c 0.735404,0 1.331185,0.60257 1.331185,1.34772 0,0.7478 -0.595782,1.35599 -1.331185,1.35599 -0.732776,0 -1.331185,-0.60819 -1.331185,-1.35599 10e-7,-0.74515 0.598408,-1.34772 1.331185,-1.34772 z"
         style="fill:url(#linearGradient1475);fill-opacity:1;stroke-width:0.26458332"
         id="path1950"
         inkscape:connector-curvature="0" />
    </g>
  </g>
</svg>
